<svg width="471" height="144" viewBox="0 0 471 144" fill="none" xmlns="http://www.w3.org/2000/svg">
<g clip-path="url(#clip0_2_2)">
<path d="M128.26 144.1H84.68L50.05 96.1H38.4V144.02H-0.0200043V0.019989H54.98C86.7 0.019989 112.61 21.6 112.61 48.14C112.61 64.34 102.68 78.81 87.61 87.65L128.25 144.12M74.25 48.12C74.2631 44.9561 73.6527 41.8206 72.4534 38.8927C71.2542 35.9649 69.4897 33.302 67.2608 31.0565C65.032 28.8109 62.3824 27.0266 59.4636 25.8055C56.5448 24.5844 53.4139 23.9505 50.25 23.94H38.4V72.1H50.28C56.6299 72.0736 62.712 69.5381 67.2002 65.0461C71.6885 60.5541 74.2189 54.4699 74.24 48.12H74.25Z"/>
<path d="M230.71 87.63C230.763 99.3049 227.352 110.733 220.907 120.468C214.462 130.203 205.274 137.808 194.506 142.318C183.737 146.829 171.873 148.044 160.414 145.808C148.955 143.573 138.417 137.988 130.133 129.76C121.85 121.533 116.193 111.033 113.88 99.5894C111.567 88.1459 112.701 76.2733 117.139 65.4745C121.576 54.6756 129.118 45.4362 138.809 38.9255C148.5 32.4149 159.905 28.9258 171.58 28.9C179.322 28.8631 186.995 30.3542 194.159 33.2877C201.324 36.2211 207.839 40.5394 213.332 45.9951C218.825 51.4508 223.187 57.9367 226.169 65.0811C229.151 72.2256 230.694 79.8882 230.71 87.63ZM171.58 56.76C161.4 56.76 152.8 70.59 152.8 87.63C152.8 104.67 161.4 118.48 171.58 118.48C181.95 118.48 190.58 104.68 190.58 87.63C190.58 70.58 181.98 56.76 171.58 56.76Z"/>
<path d="M320.86 31.29L276.61 75.56V31.17H238.18V143.98H276.61V98.21L322.82 143.98H371.14L312.44 85.25L361.08 36.63V103.63C361.08 125.88 374.42 146.37 408.08 146.37C424.08 146.37 438.71 137.3 445.83 129.11L463.12 144H471.3V31.29H432.98V104.29C428.65 111.84 422.61 116.6 413.31 116.6C403.84 116.6 399.51 110.98 399.51 93.07V31.29H320.86Z"/>
</g>
<defs>
<clipPath id="clip0_2_2">
<rect width="471" height="144" fill="white"/>
</clipPath>
</defs>
</svg>
