<svg width="40" height="20" viewBox="0 0 40 20" xmlns="http://www.w3.org/2000/svg">
<path d="M11.1501 4.46711C11.7339 3.75404 12.1301 2.79658 12.0256 1.81818C11.171 1.85968 10.128 2.36876 9.52419 3.0824C8.98203 3.69351 8.50218 4.69105 8.62727 5.62843C9.58667 5.7097 10.5452 5.16018 11.1501 4.46711Z" />
<path d="M12.0147 5.81146C10.6214 5.73042 9.4368 6.58361 8.77144 6.58361C8.10571 6.58361 7.08683 5.8523 5.98482 5.87201C4.55049 5.89258 3.21959 6.68448 2.49173 7.94398C0.99464 10.4636 2.09665 14.2011 3.55249 16.2531C4.25948 17.2684 5.11152 18.3862 6.23422 18.3461C7.29498 18.3054 7.71075 17.6754 9.00015 17.6754C10.2886 17.6754 10.6631 18.3461 11.786 18.3257C12.9505 18.3054 13.6784 17.31 14.3854 16.2938C15.1965 15.1365 15.5285 14.019 15.5494 13.9577C15.5285 13.9373 13.304 13.104 13.2834 10.6054C13.2623 8.51319 15.0298 7.51804 15.113 7.45632C14.1149 6.01484 12.5554 5.8523 12.0147 5.81146Z" />
<path d="M22.7993 2.95224V5.90297H25.2167V7.79137H22.7993V14.779C22.7993 15.8529 23.2828 16.3605 24.3344 16.3605C24.6003 16.3605 25.0475 16.3252 25.2046 16.3016V18.19C24.9386 18.2609 24.3465 18.2963 23.8025 18.2963C21.3487 18.2963 20.3817 17.3637 20.3817 14.9914V7.79137H18.5444V5.90297H20.3817V2.95224H22.7993Z" />
<path d="M33.5722 18.2254H31.0217L26.4406 5.90297H28.9789L32.2788 15.8529H32.3272L35.627 5.90297H38.1414L33.5722 18.2254Z" />
</svg>
