<?xml version="1.0" encoding="utf-8"?>
<!-- Generator: Adobe Illustrator 24.1.0, SVG Export Plug-In . SVG Version: 6.00 Build 0)  -->
<svg version="1.1" id="Layer_1" xmlns="http://www.w3.org/2000/svg" xmlns:xlink="http://www.w3.org/1999/xlink" x="0px" y="0px"
	 viewBox="0 0 170.2574005 79.254425" enable-background="new 0 0 170.2574005 79.254425" xml:space="preserve">
<g>
	<g>
		<path d="M43.8818512,12.7013044C46.6154289,9.2821989,48.4704132,4.6913166,47.9811783,0
			C43.979599,0.1989775,39.096447,2.6399755,36.2693291,6.0617657c-2.5384407,2.9302349-4.7851601,7.7133217-4.1994553,12.2079792
			C36.5618477,18.6594028,41.0496712,16.0244904,43.8818512,12.7013044"/>
		<path d="M47.9301338,19.1473465c-6.5234337-0.3885803-12.0699387,3.7023544-15.1852226,3.7023544
			c-3.1169872,0-7.8874855-3.5065422-13.0471725-3.4120445c-6.7156553,0.0986366-12.9470129,3.8957329-16.3549213,9.9348717
			C-3.6666787,41.4537849,1.4930089,59.3745346,8.30937,69.2140503c3.3101835,4.8679199,7.2995014,10.2278595,12.5560608,10.0353317
			c4.9665527-0.1948929,6.9132328-3.2159271,12.950304-3.2159271c6.0326233,0,7.7861671,3.2159271,13.0435829,3.1185074
			c5.4520645-0.0974731,8.8605766-4.8703461,12.1707001-9.7430115c3.7974014-5.5491791,5.3519096-10.9073563,5.4496956-11.2014999
			c-0.0977859-0.0974197-10.5131187-4.0930061-10.6096878-16.0738602
			c-0.0983315-10.0317421,8.1771927-14.8033981,8.5666809-15.0993061
			C57.7634506,20.1225128,50.4615746,19.3431587,47.9301338,19.1473465"/>
	</g>
	<g>
		<path d="M98.4243927,5.4376736v14.1484375h11.3183594v9.0546875H98.4243927v33.5048828
			c0,5.1494179,2.2636719,7.5830116,7.1875,7.5830116c1.2451172,0,3.3388672-0.1689453,4.0742188-0.2822266v9.0546875
			c-1.2451172,0.3398438-4.0175781,0.5097656-6.5644531,0.5097656c-11.4892578,0-16.0166016-4.4716797-16.0166016-15.8466835
			V28.6407986h-8.6025391v-9.0546875h8.6025391V5.4376736H98.4243927z"/>
		<path d="M148.8638458,78.6710739h-11.9414063l-21.4492188-59.0849609h11.8847656l15.4501953,47.7089844h0.2265625
			l15.4501953-47.7089844h11.7724609L148.8638458,78.6710739z"/>
	</g>
</g>
<g>
</g>
<g>
</g>
<g>
</g>
<g>
</g>
<g>
</g>
<g>
</g>
</svg>
